<?xml version="1.0" encoding="UTF-8"?>
<!DOCTYPE svg PUBLIC "-//W3C//DTD SVG 1.1//EN" "http://www.w3.org/Graphics/SVG/1.1/DTD/svg11.dtd">
<svg xmlns="http://www.w3.org/2000/svg" version="1.1" width="100px" height="100px" style="shape-rendering:geometricPrecision; text-rendering:geometricPrecision; image-rendering:optimizeQuality; fill-rule:evenodd; clip-rule:evenodd" xmlns:xlink="http://www.w3.org/1999/xlink">
<g><path style="opacity:0.958" fill="#454c55" d="M 47.5,-0.5 C 48.5,-0.5 49.5,-0.5 50.5,-0.5C 58.8333,10.1667 67.1667,10.1667 75.5,-0.5C 76.5,-0.5 77.5,-0.5 78.5,-0.5C 85.5286,27.1384 91.862,54.9717 97.5,83C 97.0386,91.6208 92.7052,97.1208 84.5,99.5C 82.8333,99.5 81.1667,99.5 79.5,99.5C 78.8333,98.5 78.1667,97.5 77.5,96.5C 82.8871,95.5484 87.3871,92.8817 91,88.5C 91.9581,86.8008 92.4581,84.9674 92.5,83C 87.4201,57.5899 81.5867,32.4233 75,7.5C 66.8382,14.1325 58.6715,14.1325 50.5,7.5C 44.0113,32.1049 38.3446,56.9382 33.5,82C 33.4473,85.8937 34.7807,89.227 37.5,92C 41.2766,93.4958 44.9433,94.9958 48.5,96.5C 48.2178,97.7777 47.5511,98.7777 46.5,99.5C 33.8333,99.5 21.1667,99.5 8.5,99.5C 1.00989,95.7585 -0.323444,90.4252 4.5,83.5C 6.31147,82.2606 8.31147,81.5939 10.5,81.5C 14.5402,82.1414 18.5402,82.9747 22.5,84C 23.2524,84.6708 23.5858,85.5041 23.5,86.5C 22.5081,88.0265 21.0081,88.6932 19,88.5C 15.5123,87.55 12.0123,87.05 8.5,87C 5.86608,89.2933 5.86608,91.46 8.5,93.5C 16.3428,94.8204 24.3428,94.8204 32.5,93.5C 32.3764,92.8933 32.0431,92.56 31.5,92.5C 30.7515,90.6675 29.7515,89.0009 28.5,87.5C 28.3347,83.8183 28.5014,80.1516 29,76.5C 34.4841,50.5581 40.6508,24.8915 47.5,-0.5 Z"/></g>
<g><path style="opacity:1" fill="#fafbfb" d="M 77.5,96.5 C 76.1667,96.5 74.8333,96.5 73.5,96.5C 76.6798,82.9344 79.3465,69.2677 81.5,55.5C 79.8561,55.2865 78.3561,55.6198 77,56.5C 74.2814,68.4261 71.9481,80.4261 70,92.5C 68.9207,94.3937 67.5874,94.727 66,93.5C 65.6667,83.5 65.3333,73.5 65,63.5C 63.6667,62.1667 62.3333,62.1667 61,63.5C 60.5002,73.4944 60.3335,83.4944 60.5,93.5C 58.5328,93.7394 56.6995,93.4061 55,92.5C 52.5382,80.5243 50.2048,68.5243 48,56.5C 46.6439,55.6198 45.1439,55.2865 43.5,55.5C 45.9113,69.2231 48.578,82.8898 51.5,96.5C 50.5,96.5 49.5,96.5 48.5,96.5C 44.9433,94.9958 41.2766,93.4958 37.5,92C 34.7807,89.227 33.4473,85.8937 33.5,82C 38.3446,56.9382 44.0113,32.1049 50.5,7.5C 58.6715,14.1325 66.8382,14.1325 75,7.5C 81.5867,32.4233 87.4201,57.5899 92.5,83C 92.4581,84.9674 91.9581,86.8008 91,88.5C 87.3871,92.8817 82.8871,95.5484 77.5,96.5 Z"/></g>
<g><path style="opacity:1" fill="#61676e" d="M 53.5,23.5 C 57.1612,23.3501 58.1612,24.8501 56.5,28C 52.7071,28.4866 51.7071,26.9866 53.5,23.5 Z"/></g>
<g><path style="opacity:1" fill="#50565f" d="M 69.5,23.5 C 72.9563,24.5362 73.2896,26.2029 70.5,28.5C 68.2957,27.218 67.9624,25.5514 69.5,23.5 Z"/></g>
<g><path style="opacity:0.992" fill="#4c535c" d="M 73.5,96.5 C 72.1667,97.5 70.8333,98.5 69.5,99.5C 68.1667,99.5 66.8333,99.5 65.5,99.5C 63.8333,96.8333 62.1667,96.8333 60.5,99.5C 58.8333,99.5 57.1667,99.5 55.5,99.5C 54.1667,98.5 52.8333,97.5 51.5,96.5C 48.578,82.8898 45.9113,69.2231 43.5,55.5C 45.1439,55.2865 46.6439,55.6198 48,56.5C 50.2048,68.5243 52.5382,80.5243 55,92.5C 56.6995,93.4061 58.5328,93.7394 60.5,93.5C 60.3335,83.4944 60.5002,73.4944 61,63.5C 62.3333,62.1667 63.6667,62.1667 65,63.5C 65.3333,73.5 65.6667,83.5 66,93.5C 67.5874,94.727 68.9207,94.3937 70,92.5C 71.9481,80.4261 74.2814,68.4261 77,56.5C 78.3561,55.6198 79.8561,55.2865 81.5,55.5C 79.3465,69.2677 76.6798,82.9344 73.5,96.5 Z"/></g>
<g><path style="opacity:0.969" fill="#f9f9fa" d="M 23.5,86.5 C 25.0418,87.3007 26.7085,87.634 28.5,87.5C 29.7515,89.0009 30.7515,90.6675 31.5,92.5C 24.0182,93.492 16.3516,93.8254 8.5,93.5C 5.86608,91.46 5.86608,89.2933 8.5,87C 12.0123,87.05 15.5123,87.55 19,88.5C 21.0081,88.6932 22.5081,88.0265 23.5,86.5 Z"/></g>
<g><path style="opacity:1" fill="#9b9fa4" d="M 31.5,92.5 C 32.0431,92.56 32.3764,92.8933 32.5,93.5C 24.3428,94.8204 16.3428,94.8204 8.5,93.5C 16.3516,93.8254 24.0182,93.492 31.5,92.5 Z"/></g>
</svg>
