<?xml version="1.0" encoding="utf-8"?>
<!-- Generator: Adobe Illustrator 27.5.0, SVG Export Plug-In . SVG Version: 6.00 Build 0)  -->
<svg version="1.1" id="Capa_1" xmlns="http://www.w3.org/2000/svg" xmlns:xlink="http://www.w3.org/1999/xlink" x="0px" y="0px"
	 viewBox="0 0 2122 2122" style="enable-background:new 0 0 2122 2122;" xml:space="preserve">
<g>
	<path style="fill:#FAEAE3;" d="M2061.43,1315.809c-9.676-83.59-53.055-159.891-91.188-234.66
		c-10.727-21.031-19.805-42.121-27.98-63.215c-1.488-9.094-3.074-18.176-4.828-27.234c-0.668-3.453-3.824-4.148-6.371-3.102
		c-16.172-45.887-29.477-91.692-46.859-136.91c-10.141-26.371-20.473-49.394-31.492-69.367c4.309-8.973,8.492-18.176,12.777-27.586
		c1.895-4.164-1.969-7.875-5.297-7.539c1.969-9.145,3.617-18.895,4.895-29.395c0.602-4.938,1.02-9.754,1.387-14.527
		c5.594,1.598,7.867-7.449,2.141-9.711c-0.527-0.207-1.059-0.406-1.586-0.617c2.051-48.539-7.746-89.316-21.043-131.477
		c-0.066-0.219-0.137-0.441-0.203-0.66c-5.02-15.871-10.48-31.941-15.988-48.738c-0.094-0.27-0.184-0.543-0.27-0.809
		c-1.324-4.039-2.645-8.141-3.965-12.27c-0.367-1.133-0.727-2.262-1.086-3.406c-1.512-4.758-3.012-9.57-4.492-14.473
		c-9.727-32.203,1.992-79.09-34.5-160.609c-45.418-101.445-55.426,6.195-108.172,31.68c-2.246,1.086-4.465,2.012-6.684,2.863
		c-0.434,0.168-0.871,0.344-1.309,0.504c-2.129,0.777-4.246,1.465-6.355,2.051c-0.398,0.109-0.797,0.203-1.199,0.309
		c-2.016,0.527-4.023,0.98-6.031,1.348c-0.199,0.035-0.398,0.086-0.598,0.117c-2.141,0.375-4.273,0.645-6.406,0.852
		c-0.434,0.039-0.867,0.082-1.301,0.117c-2.125,0.176-4.254,0.293-6.387,0.324c-0.238,0.004-0.48-0.004-0.723,0
		c-2.133,0.02-4.27-0.023-6.422-0.125c-0.164-0.008-0.332-0.016-0.5-0.02c-2.313-0.125-4.629-0.309-6.969-0.547
		c-0.172-0.016-0.34-0.035-0.512-0.055c-22.148-2.332-45.934-9.371-75.934-11.797c-24.316-1.965-42.711-1.914-57.695-2.422l0,0
		c-1.598-0.055-3.148-0.117-4.672-0.188c-0.434-0.02-0.855-0.043-1.277-0.063c-1.145-0.059-2.266-0.121-3.371-0.191
		c-0.434-0.031-0.867-0.059-1.293-0.086c-1.324-0.094-2.621-0.199-3.898-0.316c-0.137-0.012-0.281-0.023-0.418-0.035
		c-1.383-0.133-2.727-0.289-4.059-0.461c-0.371-0.047-0.73-0.102-1.098-0.152c-0.973-0.133-1.938-0.281-2.887-0.441
		c-0.406-0.07-0.809-0.137-1.215-0.211c-1.027-0.188-2.047-0.395-3.047-0.613c-0.23-0.055-0.465-0.098-0.695-0.152
		c0.434-2.723-1.074-5.965-4.652-6.238c-4.137-0.316-8.277-0.383-12.418-0.332c-0.516-0.293-1.039-0.574-1.559-0.887
		c-0.352-0.211-0.703-0.43-1.051-0.652c-0.84-0.523-1.68-1.074-2.516-1.652c-0.301-0.211-0.609-0.414-0.918-0.633
		c-1.125-0.801-2.25-1.641-3.383-2.547c-0.145-0.113-0.277-0.234-0.414-0.344c-1-0.809-2.004-1.656-3.012-2.551
		c-0.352-0.305-0.699-0.625-1.043-0.938c-0.852-0.773-1.711-1.582-2.574-2.414c-0.34-0.332-0.68-0.656-1.023-0.992
		c-1.176-1.168-2.367-2.375-3.57-3.668c-27.887-29.84-52.063-97.551-87.461-88.637c-5.172,3.641-9.574,14.281-13.813,28.617
		c0-0.004,0-0.008-0.008-0.008c-14.102,26.43-23.688,91.18-34.59,119.738h0.004c-2.289,4.746-4.727,9.043-7.32,12.758
		c-2.996,4.277-6.098,8.59-9.273,12.934c-0.078,0.109-0.156,0.215-0.234,0.324c-3.102,4.234-6.273,8.504-9.5,12.809
		c-0.23,0.305-0.461,0.617-0.695,0.926c-3.086,4.113-6.215,8.25-9.371,12.426c-3.215,4.246-6.449,8.527-9.695,12.836
		c-0.246,0.332-0.496,0.66-0.75,0.996l0,0c-30.578,40.672-61.418,84.055-74.719,130.004c-92.227-12.965-187.004-5.641-278.629,8.273
		c-6.348,0.965-3.637,10.578,2.652,9.621c89.77-13.629,183-20.82,273.481-8.211c-2.477,10.656-3.941,21.453-4.215,32.379
		c-86.488,11.402-168.242,36.129-250.699,67.438c-5.953,2.262-3.375,11.91,2.652,9.621c81.695-31.02,162.453-55.68,248.113-67.059
		c0.883,36.527,8.012,68.719,25.086,102.914c0.328,0.785,0.707,1.531,1.047,2.305c-2.199,1.238-3.73,3.973-2.332,6.902
		c19.445,40.727,49.66,70.613,89.086,92.156c16.223,8.863,33.953,17.168,52.391,24.41c-13.68,10.742-27.758,21.273-42.539,31.328
		c-7.945,5.402-16.117,10.438-24.43,15.219c-9.742,1.781-19.469,4.133-29.168,7.356c-34.934,11.609-67.801,27.894-101,43.602
		c-27.656,13.086-58.469,22.313-81.57,43.109c-1.18,1.059-1.629,2.285-1.578,3.465c-25.078,14.176-48.605,30.766-69.441,51.629
		c-36.934,36.973-55.344,42.305-72.297,35.926c-2.184-3.594-4.328-7.219-6.336-10.945c-2.57-4.773-9.012-1.926-9.18,2.469
		c-29.188-19.305-68.535-54.18-195.383-14.34c-122.094,38.344-290.594,238.133-296.578,366.238
		c-19.273-14.067-41.957-23.852-72.715-37.559c-89.207-39.754-144.09-73.027-109.723-169.59
		c49.727-139.727,193.047-216.094,211.688-357.059c13.664-103.309-28.547-304.898-131.637-379.395
		c-70.102-50.66-178.668-46.531-183.188,22.223c-3.289,49.981,130.094,150.504,152.723,202.184
		c51.188,116.918-10.328,206.145-81.902,294.25c-76.121,93.684-143.055,185.566-122.285,313.629
		c17.988,110.926,108.668,141.41,193.543,191.297c67.816,39.852,99.234,139.953,178.555,160.102
		c14.027,31.516,32.336,60.801,55.957,86.199c2.238,2.406,5.145,1.734,6.898-0.109c21.91,21.797,48.004,40.086,78.82,53.805
		c262.871,117.047,640.633,92.668,928.148,37.063c142.836-27.625,317.727-34.559,435.137-132.777
		C2036.742,1631.082,2075.625,1438.414,2061.43,1315.809z"/>
	<g>
		<path style="fill:#806C6E;" d="M1487.613,344.516c-0.43-0.02-0.855-0.043-1.277-0.063c-1.145-0.059-2.266-0.121-3.371-0.191
			c-0.434-0.031-0.867-0.059-1.293-0.086c-1.324-0.094-2.621-0.199-3.898-0.316c-0.137-0.012-0.281-0.023-0.418-0.035
			c-1.383-0.133-2.727-0.289-4.059-0.461c-0.363-0.047-0.73-0.102-1.098-0.152c-0.973-0.133-1.938-0.281-2.887-0.441
			c-0.406-0.07-0.813-0.137-1.215-0.211c-1.027-0.188-2.047-0.395-3.047-0.613c-0.23-0.055-0.465-0.094-0.695-0.148c0,0,0,0,0-0.004
			c0.434-2.723-1.074-5.965-4.652-6.238c-4.137-0.316-8.277-0.383-12.418-0.332c-0.516-0.293-1.039-0.574-1.559-0.887
			c-0.352-0.211-0.703-0.43-1.051-0.652c-0.84-0.523-1.68-1.074-2.516-1.652c-0.301-0.211-0.609-0.414-0.918-0.633
			c-1.125-0.801-2.25-1.641-3.383-2.547c-0.145-0.113-0.277-0.234-0.414-0.344c-1-0.809-2.004-1.656-3.012-2.551
			c-0.352-0.305-0.699-0.625-1.043-0.938c-0.852-0.773-1.711-1.582-2.574-2.414c-0.34-0.332-0.68-0.656-1.023-0.992
			c-1.176-1.168-2.367-2.375-3.57-3.668c-27.887-29.84-52.063-97.551-87.461-88.637c-5.172,3.641-9.574,14.281-13.813,28.617
			c0-0.004,0-0.008-0.008-0.008c-14.102,26.43-23.688,91.18-34.59,119.738h0.004c-2.289,4.746-4.727,9.043-7.32,12.758
			c-2.996,4.277-6.098,8.59-9.273,12.934c-0.078,0.109-0.16,0.215-0.234,0.324c-3.102,4.234-6.273,8.504-9.5,12.809
			c-0.23,0.305-0.469,0.617-0.695,0.926c-3.086,4.113-6.215,8.25-9.371,12.426c-3.215,4.246-6.449,8.527-9.695,12.836
			c-0.246,0.332-0.496,0.66-0.75,0.996l0,0c47.258,24.859,118.563-11.992,157.777-38.828c27.449-18.793,52.363-44.027,83.27-57.273
			c2.547-1.094,5.129-2.012,7.723-2.859C1490.688,344.648,1489.137,344.586,1487.613,344.516z"/>
		<path style="fill:#806C6E;" d="M392.277,1451.762c-0.012-3.258,2.539-4.855,5.07-4.809c0.137-5.832,0.309-11.652,0.582-17.48l0,0
			c-19.273-14.067-41.957-23.852-72.715-37.559c-89.207-39.754-144.09-73.027-109.723-169.59
			c49.727-139.727,193.047-216.094,211.688-357.059c13.664-103.309-28.547-304.898-131.637-379.395
			c-70.102-50.66-178.668-46.531-183.188,22.223c-3.289,49.981,130.094,150.504,152.723,202.184
			c51.188,116.918-10.328,206.145-81.902,294.25c-76.121,93.684-143.055,185.566-122.285,313.629
			c17.988,110.926,108.668,141.41,193.543,191.297c67.816,39.852,99.234,139.953,178.555,160.102
			C402.891,1601.914,392.578,1523.941,392.277,1451.762z"/>
		<path style="fill:#502E18;" d="M1927.809,993.352c12.402,64.121,17.578,128.879,18.727,194.102
			c0.945,53.656,2.348,108.133-6.688,161.184c-20.645,121.156-92.07,228.191-192.895,296.977
			c-184.559,125.906-422.289,119.34-634.801,150.586c-6.352,0.934-3.641,10.551,2.648,9.621
			c225.477-33.148,471.25-27.527,662.492-169.617c91.402-67.902,151.25-173.809,172.176-284.918
			c10.109-53.699,7.766-109.445,7.043-163.832c-0.754-56.836-5.074-113.477-14.25-169.52c-1.488-9.094-3.074-18.176-4.828-27.234
			c-0.668-3.453-3.824-4.148-6.371-3.102C1928.957,988.465,1927.258,990.504,1927.809,993.352z"/>
		<path style="fill:#806C6E;" d="M1502.164,672.688c-15.57-23.418-40.734-40.473-45.266-69.047
			c-10.703-67.477-74.301-72.289-104.027-11.031c-11.371,23.43-22.934,44.492-42.141,62.453
			c-13.262,12.394-30.039,28.578-23.336,49.008c5.848,17.824,21.496,27.902,37.941,35.094
			c24.191,10.574,49.039,16.516,75.387,18.691c24.906,2.055,54.211,3.34,77.25-8.168
			C1506.5,735.434,1521.301,701.461,1502.164,672.688z"/>
		<path style="fill:#806C6E;" d="M1845.984,560.469c-0.066-0.219-0.137-0.441-0.203-0.66c-5.008-15.855-10.488-31.953-15.988-48.738
			c-0.094-0.27-0.184-0.543-0.27-0.809c-1.324-4.043-2.645-8.133-3.965-12.27c-0.367-1.133-0.727-2.262-1.086-3.406
			c-1.512-4.762-3.012-9.566-4.492-14.473c-9.727-32.203,1.992-79.09-34.5-160.609c-45.418-101.445-55.426,6.195-108.172,31.68
			c-2.246,1.086-4.465,2.012-6.684,2.863c-0.434,0.168-0.871,0.344-1.309,0.504c-2.125,0.777-4.246,1.465-6.355,2.051
			c-0.398,0.109-0.797,0.203-1.199,0.309c-2.016,0.527-4.023,0.98-6.031,1.348c-0.199,0.035-0.398,0.086-0.598,0.117
			c-2.141,0.375-4.273,0.645-6.406,0.852c-0.434,0.039-0.867,0.082-1.301,0.117c-2.125,0.176-4.254,0.289-6.387,0.324
			c-0.238,0.004-0.48-0.004-0.723,0c-2.133,0.02-4.27-0.023-6.422-0.125c-0.164-0.008-0.332-0.016-0.5-0.02
			c-2.305-0.121-4.633-0.313-6.969-0.547c-0.172-0.016-0.34-0.035-0.512-0.055c-3.031-0.316-6.105-0.746-9.207-1.211
			c-2.027-0.305-4.109-0.66-6.18-1.012c-0.82-0.141-1.641-0.277-2.473-0.426c-1.043-0.184-2.051-0.336-3.109-0.531
			c6.426,20.145,11.258,40.809,19.367,60.91c19.336,47.953,63.313,67.387,110.141,80.902
			c41.723,12.043,79.563,29.609,107.578,64.074c2.469,3.039,4.813,6.152,7.141,9.281c0.02,0.031,0.043,0.063,0.07,0.094
			C1848.184,567.5,1847.098,563.988,1845.984,560.469z"/>
		<path style="fill:#502E18;" d="M1439.242,694.555c-10.871,2.051-27.883,5.402-32.02-8.316c-3.875-12.848-0.039-29.125,1.52-42.191
			c8.84-2.203,28.301-16.879,32.176-24.246c6.352-12.102-5.824-17.77-16-19.109c-11.129-1.473-28.242-3.789-39.027-1.938
			c-21.641,3.727,0.859,29.301,6.668,36.711c1.973,2.512,3.844,4.969,6.125,6.691c-2.375,13.113-6.922,25.914-15.25,36.492
			c-9.234,11.719-22.52,6.832-33.887,1.363c-5.773-2.773-10.836,5.828-5.039,8.617c14.379,6.91,29.133,11.461,42.613,0.555
			c3.504-2.836,6.422-6.348,8.957-10.215c0.41,5.391,1.43,10.637,3.664,15.477c7.152,15.496,28.926,12.227,42.148,9.73
			C1448.211,702.984,1445.527,693.367,1439.242,694.555z"/>
		<path style="fill:#502E18;" d="M1553.969,630.223c107.426,0.992,212.871,32.781,311.992,71.961
			c0.184,0.074,0.332,0.039,0.512,0.09c5.594,1.598,7.867-7.449,2.141-9.711c-0.527-0.207-1.059-0.406-1.586-0.617
			c-99.508-39.227-205.297-70.707-313.059-71.703C1547.531,620.184,1547.539,630.164,1553.969,630.223z"/>
		<path style="fill:#502E18;" d="M1549.324,659.285c99.391,30.402,186.152,78.906,272.102,136.305
			c5.367,3.586,10.359-5.063,5.039-8.613c-86.684-57.887-174.34-106.68-274.488-137.313
			C1545.809,647.773,1543.191,657.406,1549.324,659.285z"/>
		<path style="fill:#502E18;" d="M1214.328,581.769c-15.09-3.32-30.281-5.957-45.531-8.101
			c-92.227-12.965-187.004-5.641-278.629,8.273c-6.348,0.965-3.637,10.578,2.652,9.621c89.77-13.629,183-20.82,273.481-8.211
			c15.207,2.121,30.352,4.734,45.375,8.043C1217.949,592.773,1220.613,583.156,1214.328,581.769z"/>
		<path style="fill:#502E18;" d="M1209.691,610.832c-16.055,1.145-31.898,2.828-47.605,4.899
			c-86.488,11.402-168.242,36.129-250.699,67.438c-5.953,2.262-3.375,11.91,2.652,9.621c81.695-31.02,162.453-55.68,248.113-67.059
			c15.676-2.086,31.492-3.774,47.539-4.922C1216.066,620.352,1216.117,610.371,1209.691,610.832z"/>
		<path style="fill:#502E18;" d="M1512.141,579.719c12.57,1.422,24.039-8.848,25.637-22.945
			c1.602-14.094-7.281-26.672-19.848-28.098c-12.555-1.422-24.039,8.848-25.637,22.945
			C1490.695,565.715,1499.586,578.293,1512.141,579.719z"/>
		<path style="fill:#502E18;" d="M1312.527,557.086c12.559,1.422,24.031-8.848,25.629-22.941
			c1.598-14.094-7.285-26.672-19.844-28.098c-12.566-1.422-24.039,8.848-25.633,22.941
			C1291.082,543.086,1299.961,555.664,1312.527,557.086z"/>
		<path style="fill:#502E18;" d="M1438.582,876.098c0.313-2.676-1.211-5.734-4.695-5.961
			c-49.84-3.266-103.074-23.977-147.828-45.668c-40.777-19.766-71.984-50.797-91.492-91.656c-1.367-2.859-4.141-3.066-6.281-1.863
			c-2.199,1.238-3.73,3.973-2.332,6.902c19.445,40.727,49.66,70.613,89.086,92.156c16.223,8.863,33.953,17.168,52.391,24.41
			c34.652,13.621,71.836,23.426,106.457,25.695C1436.809,880.305,1438.32,878.332,1438.582,876.098z"/>
		<path style="fill:#E4948D;" d="M1733.543,452.684c44.145,16.395,71.883,35.391,67.258-26.508
			c-1.852-24.789-25.598-134.188-50.176-117.68c-27.391,18.395-52.531,66.926-68.457,87.32
			C1650.84,435.934,1701.465,440.766,1733.543,452.684z"/>
		<path style="fill:#E4948D;" d="M1336.406,376.648c13.027-9.871,27.313-18.566,42.422-25.398
			c-6.445-37.363-29.977-64.832-53.879-93.324c0-0.004,0-0.008-0.008-0.008c-14.102,26.43-23.688,91.18-34.59,119.738h0.004
			C1309.527,379.09,1324.563,378.445,1336.406,376.648z"/>
		<path style="fill:#502E18;" d="M1856.875,748.695c-16.457,36.125-30.648,71.691-60.906,98.832
			c-3.344,2.996-6.832,5.856-10.406,8.613c-24.754,19.098-54.859,32.262-85.855,35.914c-6.371,0.75-12.785,1.145-19.191,1.059
			c-3.273-0.043-4.863,2.512-4.797,5.051c0.051,2.453,1.641,4.883,4.797,4.926c40.055,0.551,79.352-14.789,110.895-39.188
			c29.371-22.719,46.18-51.121,61.301-82.582c4.309-8.973,8.492-18.176,12.777-27.586c1.895-4.164-1.969-7.875-5.297-7.539
			C1858.871,746.328,1857.629,747.035,1856.875,748.695z"/>
		<path style="fill:#502E18;" d="M1336.406,376.648c-3.988,3.023-7.898,6.137-11.633,9.367c-4.879,4.211,2.211,11.238,7.055,7.055
			c34.629-29.938,81.578-51.09,127.875-47.539c2.816,0.219,4.313-1.602,4.652-3.734c0,0,0,0,0-0.004
			c0.434-2.723-1.074-5.965-4.652-6.238c-4.137-0.316-8.277-0.383-12.418-0.332c-23.453,0.281-46.773,6.223-68.457,16.027
			C1363.719,358.082,1349.434,366.777,1336.406,376.648z"/>
		<path style="fill:#502E18;" d="M496,1748.699c-72.414-77.863-93.32-193.91-93.742-296.938c-0.016-3.172-2.453-4.766-4.91-4.809
			c-2.531-0.047-5.082,1.551-5.07,4.809c0.301,72.18,10.613,150.152,40.711,217.793c14.027,31.516,32.336,60.801,55.957,86.199
			c2.238,2.406,5.145,1.734,6.898-0.109C497.531,1753.871,498.148,1751.004,496,1748.699z"/>
		<path style="fill:#502E18;" d="M1055.777,1002.086c22.23-20.012,52.809-29.144,79.555-41.547
			c32.668-15.152,64.891-29.875,98.617-42.598c66.242-24.992,139.07-4.859,207.422-4.191c6.438,0.063,6.43-9.914,0-9.977
			c-60.883-0.594-121.258-13.711-180.91-2.809c-9.742,1.781-19.469,4.133-29.168,7.356c-34.934,11.609-67.801,27.894-101,43.602
			c-27.656,13.086-58.469,22.313-81.57,43.109c-1.18,1.059-1.629,2.285-1.578,3.465
			C1047.285,1002.117,1052.18,1005.324,1055.777,1002.086z"/>
		<path style="fill:#502E18;" d="M929.035,1152.633c4.398,15.402,7.656,31.371,3.234,47.094c-2.715,9.633-6.527,17.512-7.57,27.566
			c-0.664,6.395,9.32,6.332,9.977,0c1.453-13.961,8.527-25.941,9.977-39.914c1.238-11.934-3.137-26.055-5.996-37.398
			c-6.074-24.113-20.668-43.238-33.25-63.93c-2.184-3.594-4.328-7.219-6.336-10.945c-2.57-4.773-9.012-1.926-9.18,2.469
			c-0.027,0.824,0.086,1.676,0.566,2.566C903.75,1104.805,921.184,1125.156,929.035,1152.633z"/>
		<path style="fill:#502E18;" d="M685.227,1366.984c0,9.977,0,19.957,0,29.934c0,6.438,9.977,6.438,9.977,0
			c0-9.977,0-19.957,0-29.934C695.203,1360.547,685.227,1360.547,685.227,1366.984z"/>
		<path style="fill:#502E18;" d="M710.172,1352.016c-0.348,12.816-4.645,25.082,0.684,37.441c2.043,4.762,9.293,2.102,9.293-2.516
			c0-1.668,0-3.324,0-4.992c0-1.945-0.965-3.234-2.238-4.004c-0.887-8.453,2.02-17.773,2.238-25.93
			C720.324,1345.582,710.348,1345.598,710.172,1352.016z"/>
		<path style="fill:#502E18;" d="M1608.191,982.832c-0.492,13.82-9.086,26.234-9.98,39.91c-0.418,6.43,9.559,6.391,9.98,0
			c0.398-6.141,3.598-12.793,5.383-18.637c2.105-6.883,4.336-14.027,4.594-21.274
			C1618.398,976.394,1608.418,976.414,1608.191,982.832z"/>
		<path style="fill:#502E18;" d="M1635.605,973.535c-12.82,7.5-12.438,26.273-12.449,39.23c-0.004,6.434,9.973,6.434,9.98,0
			c0.004-8.773-1.355-25.43,7.508-30.617C1646.191,978.906,1641.176,970.277,1635.605,973.535z"/>
		<path style="fill:#502E18;" d="M1343.773,1483.113c0-12.402,3.836-22.844,9.297-33.785c2.863-5.742-5.738-10.797-8.613-5.039
			c-4.922,9.855-8.672,19.523-10.051,30.102c-0.363,0.66-0.609,1.422-0.609,2.352c0,2.125,0,4.254,0,6.371
			C1333.797,1489.555,1343.773,1489.555,1343.773,1483.113z"/>
		<path style="fill:#502E18;" d="M1362.27,1475.281c1.664-1.664,3.324-3.328,4.988-4.988c1.922-1.926,1.715-4.262,0.555-6.016
			c3.156-7.133,5.617-14.477,5.895-22.457c0.223-6.438-9.754-6.418-9.977,0c-0.348,9.883-4.965,18.738-9.297,27.414
			C1351.957,1474.195,1358.113,1479.438,1362.27,1475.281z"/>
		<path style="fill:#502E18;" d="M1248.984,1062.656c0.188,6.414,10.168,6.434,9.977,0c-0.313-10.566-5.992-18.383-10.66-27.465
			c-2.941-5.723-11.551-0.676-8.613,5.039C1243.43,1047.516,1248.73,1054.168,1248.984,1062.656z"/>
		<path style="fill:#502E18;" d="M1264.633,1060.184c2.805,5.789,11.41,0.727,8.613-5.035c-3.922-8.082-6.047-16.848-9.977-24.945
			c-2.809-5.789-11.414-0.727-8.617,5.039C1258.574,1043.324,1260.699,1052.09,1264.633,1060.184z"/>
		<path style="fill:#502E18;" d="M1888.254,1623.895c-10.727,15.672-24.191,29.227-34.922,44.898
			c-3.645,5.332,5.004,10.309,8.613,5.039c10.73-15.676,24.195-29.223,34.926-44.902
			C1900.516,1623.605,1891.867,1618.621,1888.254,1623.895z"/>
		<path style="fill:#502E18;" d="M1894.023,1647.828c-4.063,4.293-7.156,9.391-10.465,14.258c-1.574,2.313-3.887,4.332-5.281,6.707
			c-0.473,0.805-0.586,1.652-0.633,2.52c-0.016,0-0.031,0-0.047,0c-6.434,0.02-6.438,9.996,0,9.977
			c6.379-0.02,9.336-2.418,9.863-8.098c4.938-5.805,8.375-12.762,13.617-18.309
			C1905.496,1650.215,1898.457,1643.148,1894.023,1647.828z"/>
		<path style="fill:#502E18;" d="M186.133,1413.57c-37.266-19.199-64.344-43.563-78.215-83.762
			c-22.023-63.813-4.211-140.309,22.848-199.777c2.645-5.813-5.953-10.883-8.613-5.039c-27.375,60.16-41.859,129.273-27.43,194.723
			c6.328,28.695,21.82,58.863,45.578,76.848c38.262,28.961,85.316,42.914,122.324,73.73c4.906,4.082,12.004-2.934,7.055-7.055
			C244.383,1442.168,215.199,1428.543,186.133,1413.57z"/>
		<path style="fill:#502E18;" d="M315.359,945.391c-4.574-9.988-4.301-21.648-4.309-32.406c-0.004-6.434-9.98-6.434-9.977,0
			c0.008,12.727,0.281,25.684,5.672,37.441C309.426,956.269,318.02,951.195,315.359,945.391z"/>
		<path style="fill:#502E18;" d="M329.547,924.426c-4.215-4.426-3.527-10.734-3.527-16.43c0-6.434-9.977-6.434-9.977,0
			c0.004,8.684,0.133,16.859,6.449,23.484C326.934,936.148,333.98,929.082,329.547,924.426z"/>
		<path style="fill:#502E18;" d="M212.734,520.316c-6.871,7.707-6.445,18.762-6.449,28.473c-0.008,6.434,9.973,6.434,9.976,0
			c0.004-6.469-1.145-16.176,3.527-21.418C224.055,522.586,217.02,515.504,212.734,520.316z"/>
		<path style="fill:#502E18;" d="M236.219,523.844c-0.129,2.344-1.633,4.567-2.633,6.629c-1.305,2.691-2.195,5.336-2.359,8.34
			c-0.344,6.434,9.637,6.398,9.98,0c0.125-2.344,1.633-4.57,2.629-6.629c1.309-2.691,2.199-5.34,2.359-8.34
			C246.543,517.41,236.559,517.445,236.219,523.844z"/>
		<path style="fill:#502E18;" d="M335.996,1481.73c0,6.656,0,13.301,0,19.957c0,6.434,9.98,6.434,9.98,0c0-6.656,0-13.301,0-19.957
			C345.977,1475.293,335.996,1475.293,335.996,1481.73z"/>
		<path style="fill:#502E18;" d="M350.965,1481.73c0,6.656,0,13.301,0,19.957c0,6.434,9.977,6.434,9.977,0
			c0-6.656,0-13.301,0-19.957C360.941,1475.293,350.965,1475.293,350.965,1481.73z"/>
	</g>
</g>
</svg>
